<?xml version="1.0" standalone="no"?>
<!DOCTYPE svg PUBLIC "-//W3C//DTD SVG 20010904//EN"
 "http://www.w3.org/TR/2001/REC-SVG-20010904/DTD/svg10.dtd">
<svg version="1.0" xmlns="http://www.w3.org/2000/svg"
 width="500.000000pt" height="500.000000pt" viewBox="0 0 500.000000 500.000000"
 preserveAspectRatio="xMidYMid meet">

<g transform="translate(0.000000,500.000000) scale(0.100000,-0.100000)"
fill="#000000" stroke="none">
<path d="M2292 3619 c-36 -24 -72 -85 -72 -123 0 -34 17 -77 43 -104 l21 -23
-71 -71 -71 -70 -38 26 c-72 48 -182 27 -218 -43 -29 -54 -24 -130 10 -170
l25 -30 -21 -29 c-45 -60 -44 -150 2 -199 63 -68 148 -72 216 -10 l23 21 71
-71 71 -71 -26 -33 c-49 -65 -47 -135 4 -194 55 -62 147 -71 209 -19 l30 26
30 -25 c57 -49 136 -47 195 4 62 55 69 127 19 203 l-26 39 71 70 70 71 23 -21
c71 -64 159 -57 222 17 22 26 26 42 26 90 0 48 -5 64 -25 88 -14 17 -25 33
-25 37 0 4 11 20 25 37 32 38 35 127 6 172 -48 73 -146 89 -218 37 l-40 -29
-69 69 c-51 52 -66 73 -59 83 39 53 47 70 52 104 17 123 -134 209 -240 136
l-37 -25 -32 22 c-46 33 -132 37 -176 8z m135 -50 l35 -22 -69 -69 -68 -69
-22 26 c-38 43 -24 112 28 141 34 19 57 17 96 -7z m238 9 c54 -24 71 -99 33
-143 l-23 -26 -65 66 -65 66 28 25 c31 27 53 30 92 12z m-95 -143 l65 -65 -68
-68 -67 -67 -67 67 -68 68 65 65 c35 36 67 65 70 65 3 0 35 -29 70 -65z m-177
-173 c31 -32 57 -62 57 -67 0 -5 -30 -40 -67 -77 l-67 -68 -68 67 -68 67 67
68 c37 38 72 68 78 68 6 0 36 -26 68 -58z m354 -4 c35 -34 63 -67 63 -72 0 -6
-28 -39 -62 -73 l-62 -63 -73 72 -73 72 62 63 c34 35 67 63 72 63 6 0 39 -28
73 -62z m-678 -49 l34 -21 -69 -69 -69 -70 -22 26 c-38 43 -24 112 28 141 34
19 59 17 98 -7z m960 6 c52 -26 65 -110 22 -149 -16 -14 -22 -10 -85 53 l-69
69 34 21 c40 25 60 26 98 6z m-454 -135 l70 -70 -73 -73 -72 -72 -72 72 -73
73 70 70 c38 38 72 70 75 70 3 0 37 -32 75 -70z m-365 -5 l65 -65 -68 -68 -67
-67 -67 67 -68 68 65 65 c35 36 67 65 70 65 3 0 35 -29 70 -65z m720 0 l65
-65 -68 -68 -67 -67 -67 67 -68 68 65 65 c35 36 67 65 70 65 3 0 35 -29 70
-65z m-891 -179 l63 -63 -28 -22 c-27 -21 -41 -25 -79 -22 -28 3 -75 57 -75
87 0 32 27 84 43 84 7 0 41 -29 76 -64z m348 2 c35 -34 63 -67 63 -72 0 -6
-28 -39 -62 -73 l-62 -63 -73 72 -73 72 62 63 c34 35 67 63 72 63 6 0 39 -28
73 -62z m366 4 c31 -32 57 -62 57 -67 0 -5 -30 -40 -67 -77 l-67 -68 -68 67
-68 67 67 68 c37 38 72 68 78 68 6 0 36 -26 68 -58z m312 24 c49 -90 -68 -184
-141 -115 l-25 23 63 63 c34 35 67 63 74 63 6 0 19 -15 29 -34z m-495 -211
l65 -65 -68 -68 -67 -67 -67 67 -68 68 65 65 c35 36 67 65 70 65 3 0 35 -29
70 -65z m-171 -179 l63 -63 -28 -22 c-39 -31 -89 -28 -125 8 -17 18 -29 40
-29 56 0 33 26 85 43 85 7 0 41 -29 76 -64z m306 34 c23 -44 19 -78 -14 -111
-36 -36 -86 -39 -125 -8 l-28 22 63 63 c35 35 69 64 76 64 7 0 19 -13 28 -30z"/>
<path d="M3140 2118 c0 -2 -2 -90 -3 -196 l-2 -192 25 0 25 0 -2 192 c-1 187
-2 193 -22 196 -12 2 -21 2 -21 0z"/>
<path d="M3250 1925 l0 -195 25 0 25 0 0 195 0 195 -25 0 -25 0 0 -195z"/>
<path d="M1490 1963 c-31 -11 -70 -58 -76 -91 -16 -83 38 -152 120 -152 30 0
45 7 72 34 19 19 34 42 34 53 -1 13 -5 10 -16 -12 -22 -41 -42 -55 -81 -55
-59 0 -94 64 -79 144 14 71 91 95 121 36 17 -32 49 -42 43 -13 -7 40 -90 73
-138 56z"/>
<path d="M1756 1955 c-50 -18 -64 -31 -48 -47 9 -9 17 -7 34 9 43 39 67 46 94
28 26 -17 32 -46 12 -63 -7 -6 -31 -13 -53 -17 -78 -14 -105 -38 -105 -90 0
-55 100 -76 145 -30 23 22 25 23 25 5 0 -15 7 -20 25 -20 23 0 25 4 25 44 0
23 -3 71 -6 105 -6 55 -10 64 -35 77 -34 17 -62 17 -113 -1z m104 -117 c0 -50
-34 -98 -68 -98 -35 0 -52 16 -52 51 0 31 13 44 66 63 54 20 54 20 54 -16z"/>
<path d="M1998 1959 c-10 -5 -22 -19 -28 -29 -16 -30 3 -56 59 -85 84 -42 106
-84 56 -107 -34 -15 -73 3 -87 42 -10 30 -31 39 -43 20 -19 -30 49 -80 110
-80 40 0 85 36 85 68 0 22 -32 53 -80 77 -70 35 -89 68 -48 84 32 12 58 2 69
-25 5 -15 17 -24 30 -24 20 0 20 2 7 23 -28 42 -91 59 -130 36z"/>
<path d="M2256 1956 c-49 -18 -64 -32 -49 -47 12 -12 53 4 53 20 0 12 51 28
72 23 22 -4 34 -48 18 -66 -6 -8 -35 -20 -63 -26 -87 -18 -121 -71 -77 -118
27 -29 88 -30 124 -1 21 17 26 18 26 5 0 -10 9 -16 25 -16 25 0 25 0 25 94 0
75 -4 98 -18 116 -22 27 -84 35 -136 16z m86 -185 c-12 -16 -31 -27 -50 -29
-26 -3 -34 2 -44 22 -18 42 2 72 59 89 l48 14 3 -35 c2 -23 -3 -44 -16 -61z"/>
<path d="M2926 1956 c-50 -19 -64 -32 -48 -48 9 -9 18 -6 39 14 16 14 38 28
50 31 44 10 83 -45 51 -70 -7 -6 -35 -16 -63 -22 -74 -18 -95 -35 -95 -76 0
-64 95 -91 145 -40 23 22 25 23 25 5 0 -15 7 -20 26 -20 l27 0 -7 102 c-4 66
-11 107 -20 116 -20 20 -86 24 -130 8z m104 -118 c0 -50 -34 -98 -68 -98 -35
0 -52 16 -52 51 0 31 13 44 66 63 54 20 54 20 54 -16z"/>
<path d="M3414 1951 c-44 -27 -64 -59 -64 -104 0 -78 50 -127 131 -127 33 0
47 6 75 34 19 19 34 42 34 53 0 12 -8 6 -22 -19 -52 -90 -168 -55 -168 52 l0
30 90 0 c102 0 110 8 63 60 -37 41 -94 50 -139 21z m79 -2 c27 -14 37 -28 37
-51 0 -15 -10 -18 -64 -18 l-65 0 10 29 c6 15 20 33 32 39 28 14 25 14 50 1z"/>
<path d="M2600 1955 c0 -3 21 -55 47 -115 42 -100 48 -110 72 -110 23 0 30 10
64 93 39 97 44 122 26 133 -19 11 -31 -11 -19 -37 9 -20 6 -36 -19 -92 -17
-37 -32 -67 -34 -67 -3 0 -24 45 -47 100 -37 86 -46 100 -67 100 -12 0 -23 -2
-23 -5z"/>
<path d="M2486 1562 c-2 -4 4 -8 14 -8 10 0 16 4 14 8 -3 4 -9 8 -14 8 -5 0
-11 -4 -14 -8z"/>
<path d="M2232 1493 c-9 -16 -23 -28 -29 -29 -7 -1 -168 -2 -358 -2 -232 -2
-345 -5 -345 -12 0 -7 115 -10 360 -8 336 3 361 2 366 -14 3 -10 9 -18 14 -18
5 0 5 11 -2 25 -9 19 -8 29 6 50 21 32 48 32 105 -2 39 -23 43 -28 24 -31 -12
-2 -27 -10 -33 -17 -19 -23 10 -28 57 -12 22 7 48 10 59 6 10 -4 33 -8 49 -8
23 -1 26 2 15 9 -21 13 -6 12 69 -5 35 -9 66 -13 69 -11 10 11 -8 35 -30 38
-20 3 -18 7 23 31 57 34 84 34 105 2 14 -21 15 -31 6 -50 -13 -28 -5 -33 12
-10 10 14 57 16 369 15 237 0 357 3 357 10 0 7 -118 11 -345 12 -190 0 -351 1
-357 2 -7 1 -21 13 -30 29 -25 38 -69 36 -133 -7 -28 -18 -61 -37 -75 -41
l-25 -7 25 27 c23 26 24 27 3 16 -12 -6 -25 -16 -28 -21 -3 -6 -19 -10 -35
-10 -16 0 -32 4 -35 10 -3 5 -16 15 -28 21 -21 11 -20 10 3 -16 l25 -27 -25 7
c-14 4 -47 23 -75 41 -64 43 -108 45 -133 7z m171 -60 c-7 -2 -21 -2 -30 0
-10 3 -4 5 12 5 17 0 24 -2 18 -5z m230 0 c-7 -2 -21 -2 -30 0 -10 3 -4 5 12
5 17 0 24 -2 18 -5z"/>
<path d="M2470 1488 c28 -23 43 -23 63 0 15 16 12 17 -35 18 -51 1 -51 1 -28
-18z"/>
<path d="M2255 1460 c-4 -6 3 -9 16 -7 17 1 24 -4 29 -23 5 -21 7 -22 13 -7 3
9 4 24 1 32 -7 17 -49 20 -59 5z"/>
<path d="M2686 1455 c-3 -8 -2 -23 1 -32 6 -15 8 -14 13 7 5 19 12 24 29 23
13 -2 20 1 16 7 -10 15 -52 12 -59 -5z"/>
<path d="M1700 1175 l0 -55 33 1 c23 1 26 3 10 6 -20 4 -23 11 -23 54 0 27 -4
49 -10 49 -5 0 -10 -25 -10 -55z"/>
<path d="M1820 1187 c0 -47 13 -67 45 -67 32 0 45 20 45 67 0 58 -18 55 -22
-4 -3 -40 -6 -48 -23 -48 -17 0 -20 8 -23 48 -4 59 -22 62 -22 4z"/>
<path d="M1980 1224 c0 -5 6 -19 14 -29 12 -17 12 -22 0 -39 -21 -30 -16 -45
5 -17 l19 24 11 -21 c6 -12 16 -22 22 -22 5 0 2 12 -8 26 -16 25 -16 28 0 55
9 16 12 29 7 29 -5 0 -14 -9 -20 -20 -11 -21 -11 -21 -30 2 -11 13 -19 18 -20
12z"/>
<path d="M2120 1187 c0 -47 13 -67 45 -67 32 0 45 20 45 67 0 58 -18 55 -22
-4 -3 -40 -6 -48 -23 -48 -17 0 -20 8 -23 48 -4 59 -22 62 -22 4z"/>
<path d="M2281 1173 c1 -32 4 -48 6 -35 6 28 18 28 37 0 9 -12 19 -19 22 -15
4 4 1 13 -5 21 -9 11 -9 19 0 34 18 29 5 52 -31 52 l-30 0 1 -57z m54 27 c0
-8 -10 -16 -22 -18 -18 -3 -23 2 -23 18 0 16 5 21 23 18 12 -2 22 -10 22 -18z"/>
<path d="M2421 1225 c0 -5 6 -21 14 -35 8 -14 15 -36 16 -50 l1 -25 7 25 c5
14 16 40 25 58 20 39 3 44 -18 5 -8 -16 -15 -23 -16 -17 0 13 -29 52 -29 39z"/>
<path d="M2663 1175 c0 -33 2 -48 4 -32 4 22 9 27 33 27 24 0 29 -5 33 -27 2
-16 4 -1 4 32 0 33 -2 48 -4 33 -4 -23 -9 -28 -33 -28 -24 0 -29 5 -33 28 -2
15 -4 0 -4 -33z"/>
<path d="M2822 1218 c-7 -7 -12 -26 -12 -43 0 -39 16 -55 55 -55 39 0 55 16
55 55 0 17 -5 36 -12 43 -16 16 -70 16 -86 0z m72 -14 c9 -8 16 -22 16 -29 0
-18 -27 -45 -45 -45 -18 0 -45 27 -45 45 0 18 27 45 45 45 7 0 21 -7 29 -16z"/>
<path d="M2993 1223 c13 -3 17 -15 17 -54 0 -27 5 -49 10 -49 6 0 10 22 10 49
0 30 5 51 13 54 6 3 -6 5 -28 5 -22 0 -32 -2 -22 -5z"/>
<path d="M3120 1175 l0 -55 33 1 c23 1 26 3 10 6 -14 3 -23 12 -23 23 0 11 9
20 23 23 l22 4 -22 2 c-16 1 -23 7 -23 20 0 12 8 21 23 24 16 3 13 5 -10 6
l-33 1 0 -55z"/>
<path d="M3252 1178 c-2 -57 -2 -58 26 -57 22 1 23 2 5 6 -19 4 -23 12 -26 56
l-3 52 -2 -57z"/>
</g>
</svg>
