<?xml version="1.0" standalone="no"?>
<!DOCTYPE svg PUBLIC "-//W3C//DTD SVG 20010904//EN"
 "http://www.w3.org/TR/2001/REC-SVG-20010904/DTD/svg10.dtd">
<svg version="1.0" xmlns="http://www.w3.org/2000/svg"
 width="146.000000pt" height="153.000000pt" viewBox="0 0 146.000000 153.000000"
 preserveAspectRatio="xMidYMid meet">

<g transform="translate(0.000000,153.000000) scale(0.100000,-0.100000)"
fill="#000000" stroke="none">
<path d="M549 1377 c-54 -37 -82 -85 -76 -134 4 -38 12 -55 52 -109 7 -11 -8
-32 -61 -85 l-71 -71 -48 31 c-81 52 -157 34 -212 -48 -38 -56 -31 -100 29
-183 10 -14 9 -21 -9 -40 -30 -34 -43 -63 -43 -98 0 -74 77 -150 152 -150 21
0 53 12 83 31 l50 32 67 -73 66 -72 -29 -46 c-35 -56 -37 -102 -6 -156 45 -79
155 -100 216 -42 34 32 38 32 72 0 61 -58 168 -38 214 41 33 56 32 100 -4 157
l-29 46 66 72 67 72 52 -32 c44 -28 59 -32 97 -28 52 6 87 30 115 79 29 52 27
97 -8 150 l-30 44 27 35 c37 48 38 131 4 175 -60 77 -150 86 -220 22 l-23 -21
-73 73 -74 73 29 46 c35 55 37 100 8 151 -49 87 -145 107 -217 46 l-30 -26
-48 31 c-59 37 -107 39 -155 7z m125 -48 c14 -11 26 -25 26 -31 0 -5 -28 -39
-62 -75 l-63 -65 -27 31 c-39 44 -37 84 6 127 40 40 80 44 120 13z m262 -13
c40 -40 44 -73 13 -122 -11 -19 -23 -34 -26 -34 -11 0 -133 124 -133 136 0 21
51 54 82 54 21 0 41 -11 64 -34z m-108 -245 c-28 -31 -57 -63 -65 -71 -11 -12
-23 -5 -83 55 l-70 69 67 68 67 68 68 -67 67 -67 -51 -55z m-188 -56 l65 -65
-73 -73 -72 -72 -67 68 -68 67 70 70 c38 38 72 70 75 70 3 0 35 -29 70 -65z
m358 -8 l72 -73 -68 -67 -68 -67 -74 75 -74 75 64 65 c35 36 67 65 70 65 3 0
38 -33 78 -73z m-684 -38 c14 -11 26 -26 26 -33 0 -6 -29 -40 -64 -75 l-63
-62 -27 31 c-37 44 -35 83 8 126 40 40 80 44 120 13z m959 10 c28 -13 57 -58
57 -89 0 -24 -37 -91 -48 -89 -4 1 -36 33 -72 71 l-65 70 28 24 c30 26 62 30
100 13z m-451 -136 c38 -37 68 -72 68 -78 0 -6 -32 -42 -70 -80 l-70 -69 -75
74 -75 75 72 72 c40 40 75 73 77 73 3 0 36 -30 73 -67z m-369 -145 l-67 -68
-68 67 -68 67 67 68 67 68 68 -67 68 -67 -67 -68z m720 0 l-67 -68 -68 67 -68
67 67 68 67 68 68 -67 68 -67 -67 -68z m-893 -44 l65 -65 -28 -25 c-41 -35
-81 -32 -124 11 -31 31 -35 40 -30 72 6 32 31 73 46 73 4 0 36 -30 71 -66z
m354 -3 l69 -69 -31 -39 c-16 -21 -45 -53 -64 -70 l-34 -33 -74 75 -74 75 64
65 c35 36 67 65 70 65 3 0 36 -31 74 -69z m366 4 l65 -65 -75 -74 -75 -75 -64
70 -64 70 69 70 c38 38 71 69 74 69 3 0 35 -29 70 -65z m309 39 c31 -40 27
-80 -13 -120 -42 -42 -82 -45 -123 -10 l-28 25 65 65 c35 36 68 66 71 66 4 0
17 -12 28 -26z m-496 -356 l-67 -68 -68 67 -68 67 67 68 67 68 68 -67 68 -67
-67 -68z m-173 -44 l65 -65 -28 -25 c-41 -35 -81 -32 -124 11 -31 31 -35 40
-30 72 6 32 31 73 46 73 4 0 36 -30 71 -66z m309 40 c25 -32 27 -66 4 -104
-31 -54 -95 -65 -140 -26 l-28 25 65 65 c35 36 68 66 71 66 4 0 17 -12 28 -26z"/>
</g>
</svg>
